<?xml version="1.0" encoding="utf-8"?>
<!DOCTYPE svg PUBLIC "-//W3C//DTD SVG 1.1//EN" "http://www.w3.org/Graphics/SVG/1.1/DTD/svg11.dtd">
<svg version="1.1" xmlns="http://www.w3.org/2000/svg" xmlns:xlink="http://www.w3.org/1999/xlink" x="0px" y="0px"
  viewBox="0 0 512 512" enable-background="new 0 0 512 512" xml:space="preserve">
<g>
 <g>
  <ellipse transform="matrix(-0.9781 0.2079 -0.2079 -0.9781 605.6925 211.2279)" cx="291.7" cy="137.4" rx="17.7" ry="10.6"/>
 </g>
 <g>
  <ellipse transform="matrix(-0.9781 0.2079 -0.2079 -0.9781 505.5779 201.8674)" cx="242.2" cy="127.5" rx="17.7" ry="10.6"/>
 </g>
 <g>
  <ellipse transform="matrix(-0.9781 0.2079 -0.2079 -0.9781 553.5987 360.3081)" cx="257.9" cy="209.2" rx="17.7" ry="10.6"/>
  
 </g>
 <g>
  <ellipse transform="matrix(-0.9781 0.2079 -0.2079 -0.9781 361.9751 332.0905)" cx="163.5" cy="185.1" rx="17.7" ry="10.6"/>
 </g>
 <g>
  <ellipse transform="matrix(-0.9781 0.2079 -0.2079 -0.9781 706.803 217.8937)" cx="342" cy="146.1" rx="17.7" ry="10.6"/>
 </g>
 <g>
  <ellipse transform="matrix(-0.2599 0.9656 -0.9656 -0.2599 690.6201 1.5862)" cx="344.7" cy="265.4" rx="18.2" ry="10.9"/>
 </g>
 <g>
  <ellipse transform="matrix(-0.26 0.9656 -0.9656 -0.26 652.1984 -122.3714)" cx="373" cy="188.7" rx="18.2" ry="10.9"/>
 </g>
 <g>
  <ellipse transform="matrix(-0.2599 0.9656 -0.9656 -0.2599 726.8503 124.2141)" cx="315.8" cy="340.6" rx="18.2" ry="10.9"/>
 </g>
 <g>
  <ellipse transform="matrix(0.6832 0.7303 -0.7303 0.6832 232.5709 -41.0011)" cx="163.5" cy="247.5" rx="18.2" ry="10.9"/>
 </g>
 <g>
  <ellipse transform="matrix(0.6831 0.7303 -0.7303 0.6831 326.1418 -70.5652)" cx="244.4" cy="340.5" rx="18.2" ry="10.9"/>
 </g>
 <g>
  <ellipse transform="matrix(-0.9781 0.2079 -0.2079 -0.9781 457.104 346.0951)" cx="210.4" cy="197.1" rx="17.7" ry="10.6"/>
 </g>
 <path fill="none" stroke="#000000" stroke-width="5" stroke-miterlimit="10" d="M355.7,133.4"/>
 <path fill="none" stroke="#000000" stroke-width="5" stroke-miterlimit="10" d="M253.6,114.4"/>
 <line fill="none" stroke="#000000" stroke-width="5" stroke-miterlimit="10" x1="262.3" y1="238.6" x2="389.3" y2="131.2"/>
 <line fill="none" stroke="#000000" stroke-width="5" stroke-miterlimit="10" x1="389.3" y1="131.2" x2="402.9" y2="286.5"/>
 <line fill="none" stroke="#000000" stroke-width="5" stroke-miterlimit="10" x1="402.9" y1="286.5" x2="297.1" y2="405.4"/>
 <line fill="none" stroke="#000000" stroke-width="5" stroke-miterlimit="10" x1="297.1" y1="405.4" x2="155.6" y2="340.6"/>
 <line fill="none" stroke="#000000" stroke-width="5" stroke-miterlimit="10" x1="155.6" y1="340.6" x2="109.2" y2="197.1"/>
 <line fill="none" stroke="#000000" stroke-width="5" stroke-miterlimit="10" x1="262.3" y1="238.6" x2="297.1" y2="405.4"/>
 <line fill="none" stroke="#000000" stroke-width="5" stroke-miterlimit="10" x1="262.3" y1="238.6" x2="109.2" y2="197.1"/>
 <line fill="none" stroke="#000000" stroke-width="5" stroke-miterlimit="10" x1="109.2" y1="197.1" x2="242.2" y2="106.6"/>
 <line fill="none" stroke="#000000" stroke-width="5" stroke-miterlimit="10" x1="242.2" y1="106.6" x2="389.3" y2="131.2"/>
</g>
</svg>

