<?xml version="1.0" encoding="UTF-8" standalone="no"?>
<!-- Created with Inkscape (http://www.inkscape.org/) -->
<svg
   xmlns:svg="http://www.w3.org/2000/svg"
   xmlns="http://www.w3.org/2000/svg"
   version="1.0"
   width="349.46875"
   height="367.09293"
   id="svg2">
  <defs
     id="defs4" />
  <g
     transform="translate(-197.31286,-342.63462)"
     id="layer1">
    <g
       transform="translate(2.0620436,-112.80023)"
       id="g2399">
      <g
         transform="matrix(1.5714286,0,0,1.5714286,-167.22446,-504.26359)"
         id="g3206">
        <path
           d="M 349.02037,610.71718 L 453.01231,648.94863 L 324.85742,699.70363 L 230.66608,646.81089 L 349.02037,610.71718 z"
           id="path2434"
           style="fill:#ececec;fill-rule:evenodd;stroke:none;stroke-width:1px;stroke-linecap:butt;stroke-linejoin:miter;stroke-opacity:1" />
        <path
           d="M 230.8904,646.9616 L 326.19981,699.98585 L 333.70705,844.32177 L 244.98545,773.81708 L 230.8904,646.9616 z"
           id="path2420"
           style="fill:#b3b3b3;fill-opacity:1;fill-rule:evenodd;stroke:none;stroke-width:1px;stroke-linecap:butt;stroke-linejoin:miter;stroke-opacity:1" />
        <path
           d="M 453.05529,648.97518 L 324.85742,699.31466 L 333.58293,844.29235 L 445.00097,781.8714 L 453.05529,648.97518 z"
           id="path2404"
           style="fill:#808080;fill-opacity:1;fill-rule:evenodd;stroke:none;stroke-width:1px;stroke-linecap:butt;stroke-linejoin:miter;stroke-opacity:1" />
        <path
           d="M 377.21048,723.81317 C 377.21334,735.49308 371.20244,744.96391 363.78662,744.96391 C 356.3708,744.96391 350.3599,735.49308 350.36276,723.81317 C 350.3599,712.13326 356.3708,702.66243 363.78662,702.66243 C 371.20244,702.66243 377.21334,712.13326 377.21048,723.81317 z"
           transform="matrix(0.9010583,0.4336979,-0.4336979,0.9010583,348.56754,-86.82941)"
           id="path2396"
           style="opacity:1;fill:#000000;fill-opacity:1;stroke:none;stroke-width:25.80236244;stroke-linecap:round;stroke-linejoin:round;stroke-miterlimit:4;stroke-dasharray:none;stroke-dashoffset:0;stroke-opacity:1" />
        <path
           d="M 377.21048,723.81317 C 377.21334,735.49308 371.20244,744.96391 363.78662,744.96391 C 356.3708,744.96391 350.3599,735.49308 350.36276,723.81317 C 350.3599,712.13326 356.3708,702.66243 363.78662,702.66243 C 371.20244,702.66243 377.21334,712.13326 377.21048,723.81317 z"
           transform="matrix(0.9010583,0.4336979,-0.4336979,0.9010583,408.9749,-111.99909)"
           id="path2398"
           style="opacity:1;fill:#000000;fill-opacity:1;stroke:none;stroke-width:25.80236244;stroke-linecap:round;stroke-linejoin:round;stroke-miterlimit:4;stroke-dasharray:none;stroke-dashoffset:0;stroke-opacity:1" />
        <path
           d="M 377.21048,723.81317 C 377.21334,735.49308 371.20244,744.96391 363.78662,744.96391 C 356.3708,744.96391 350.3599,735.49308 350.36276,723.81317 C 350.3599,712.13326 356.3708,702.66243 363.78662,702.66243 C 371.20244,702.66243 377.21334,712.13326 377.21048,723.81317 z"
           transform="matrix(0.9010583,0.4336979,-0.4336979,0.9010583,407.63251,-42.866209)"
           id="path2400"
           style="opacity:1;fill:#000000;fill-opacity:1;stroke:none;stroke-width:25.80236244;stroke-linecap:round;stroke-linejoin:round;stroke-miterlimit:4;stroke-dasharray:none;stroke-dashoffset:0;stroke-opacity:1" />
        <path
           d="M 377.21048,723.81317 C 377.21334,735.49308 371.20244,744.96391 363.78662,744.96391 C 356.3708,744.96391 350.3599,735.49308 350.36276,723.81317 C 350.3599,712.13326 356.3708,702.66243 363.78662,702.66243 C 371.20244,702.66243 377.21334,712.13326 377.21048,723.81317 z"
           transform="matrix(0.9010583,0.4336979,-0.4336979,0.9010583,349.23872,-15.347295)"
           id="path2402"
           style="opacity:1;fill:#000000;fill-opacity:1;stroke:none;stroke-width:25.80236244;stroke-linecap:round;stroke-linejoin:round;stroke-miterlimit:4;stroke-dasharray:none;stroke-dashoffset:0;stroke-opacity:1" />
        <path
           d="M 377.21048,723.81317 C 377.21334,735.49308 371.20244,744.96391 363.78662,744.96391 C 356.3708,744.96391 350.3599,735.49308 350.36276,723.81317 C 350.3599,712.13326 356.3708,702.66243 363.78662,702.66243 C 371.20244,702.66243 377.21334,712.13326 377.21048,723.81317 z"
           transform="matrix(-0.6471646,0.5116816,0.4393806,0.8561301,217.29093,-91.126195)"
           id="path2408"
           style="opacity:1;fill:#000000;fill-opacity:1;stroke:none;stroke-width:25.80236244;stroke-linecap:round;stroke-linejoin:round;stroke-miterlimit:4;stroke-dasharray:none;stroke-dashoffset:0;stroke-opacity:1" />
        <path
           d="M 377.21048,723.81317 C 377.21334,735.49308 371.20244,744.96391 363.78662,744.96391 C 356.3708,744.96391 350.3599,735.49308 350.36276,723.81317 C 350.3599,712.13326 356.3708,702.66243 363.78662,702.66243 C 371.20244,702.66243 377.21334,712.13326 377.21048,723.81317 z"
           transform="matrix(-0.6471646,0.5116816,0.4393806,0.8561301,220.10841,-47.455101)"
           id="path2410"
           style="opacity:1;fill:#000000;fill-opacity:1;stroke:none;stroke-width:25.80236244;stroke-linecap:round;stroke-linejoin:round;stroke-miterlimit:4;stroke-dasharray:none;stroke-dashoffset:0;stroke-opacity:1" />
        <path
           d="M 377.21048,723.81317 C 377.21334,735.49308 371.20244,744.96391 363.78662,744.96391 C 356.3708,744.96391 350.3599,735.49308 350.36276,723.81317 C 350.3599,712.13326 356.3708,702.66243 363.78662,702.66243 C 371.20244,702.66243 377.21334,712.13326 377.21048,723.81317 z"
           transform="matrix(-0.6471646,0.5116816,0.4393806,0.8561301,222.79318,-5.8275546)"
           id="path2412"
           style="opacity:1;fill:#000000;fill-opacity:1;stroke:none;stroke-width:25.80236244;stroke-linecap:round;stroke-linejoin:round;stroke-miterlimit:4;stroke-dasharray:none;stroke-dashoffset:0;stroke-opacity:1" />
        <path
           d="M 377.21048,723.81317 C 377.21334,735.49308 371.20244,744.96391 363.78662,744.96391 C 356.3708,744.96391 350.3599,735.49308 350.36276,723.81317 C 350.3599,712.13326 356.3708,702.66243 363.78662,702.66243 C 371.20244,702.66243 377.21334,712.13326 377.21048,723.81317 z"
           transform="matrix(-0.5959293,0.4850779,0.4045953,0.8116176,176.71328,-76.719742)"
           id="path2414"
           style="opacity:1;fill:#000000;fill-opacity:1;stroke:none;stroke-width:25.80236244;stroke-linecap:round;stroke-linejoin:round;stroke-miterlimit:4;stroke-dasharray:none;stroke-dashoffset:0;stroke-opacity:1" />
        <path
           d="M 377.21048,723.81317 C 377.21334,735.49308 371.20244,744.96391 363.78662,744.96391 C 356.3708,744.96391 350.3599,735.49308 350.36276,723.81317 C 350.3599,712.13326 356.3708,702.66243 363.78662,702.66243 C 371.20244,702.66243 377.21334,712.13326 377.21048,723.81317 z"
           transform="matrix(-0.544694,0.4939458,0.36981,0.8264551,188.41927,-50.021032)"
           id="path2416"
           style="opacity:1;fill:#000000;fill-opacity:1;stroke:none;stroke-width:25.80236244;stroke-linecap:round;stroke-linejoin:round;stroke-miterlimit:4;stroke-dasharray:none;stroke-dashoffset:0;stroke-opacity:1" />
        <path
           d="M 377.21048,723.81317 C 377.21334,735.49308 371.20244,744.96391 363.78662,744.96391 C 356.3708,744.96391 350.3599,735.49308 350.36276,723.81317 C 350.3599,712.13326 356.3708,702.66243 363.78662,702.66243 C 371.20244,702.66243 377.21334,712.13326 377.21048,723.81317 z"
           transform="matrix(-0.5105371,0.4230026,0.3466199,0.7077551,197.46358,99.988947)"
           id="path2418"
           style="opacity:1;fill:#000000;fill-opacity:1;stroke:none;stroke-width:25.80236244;stroke-linecap:round;stroke-linejoin:round;stroke-miterlimit:4;stroke-dasharray:none;stroke-dashoffset:0;stroke-opacity:1" />
        <path
           d="M 377.21048,723.81317 C 377.21334,735.49308 371.20244,744.96391 363.78662,744.96391 C 356.3708,744.96391 350.3599,735.49308 350.36276,723.81317 C 350.3599,712.13326 356.3708,702.66243 363.78662,702.66243 C 371.20244,702.66243 377.21334,712.13326 377.21048,723.81317 z"
           transform="matrix(0.2770342,0.6113631,0.8400405,-0.1261884,-423.55666,515.2215)"
           id="path2422"
           style="opacity:1;fill:#000000;fill-opacity:1;stroke:none;stroke-width:25.80236244;stroke-linecap:round;stroke-linejoin:round;stroke-miterlimit:4;stroke-dasharray:none;stroke-dashoffset:0;stroke-opacity:1" />
        <path
           d="M 377.21048,723.81317 C 377.21334,735.49308 371.20244,744.96391 363.78662,744.96391 C 356.3708,744.96391 350.3599,735.49308 350.36276,723.81317 C 350.3599,712.13326 356.3708,702.66243 363.78662,702.66243 C 371.20244,702.66243 377.21334,712.13326 377.21048,723.81317 z"
           transform="matrix(0.2616661,0.5400525,0.7934403,-0.1114695,-324.83554,512.72304)"
           id="path2424"
           style="opacity:1;fill:#000000;fill-opacity:1;stroke:none;stroke-width:25.80236244;stroke-linecap:round;stroke-linejoin:round;stroke-miterlimit:4;stroke-dasharray:none;stroke-dashoffset:0;stroke-opacity:1" />
        <path
           d="M 377.21048,723.81317 C 377.21334,735.49308 371.20244,744.96391 363.78662,744.96391 C 356.3708,744.96391 350.3599,735.49308 350.36276,723.81317 C 350.3599,712.13326 356.3708,702.66243 363.78662,702.66243 C 371.20244,702.66243 377.21334,712.13326 377.21048,723.81317 z"
           transform="matrix(0.2924024,-0.5875929,0.8866407,0.1212821,-350.78801,774.27682)"
           id="path2426"
           style="opacity:1;fill:#000000;fill-opacity:1;stroke:none;stroke-width:25.80236244;stroke-linecap:round;stroke-linejoin:round;stroke-miterlimit:4;stroke-dasharray:none;stroke-dashoffset:0;stroke-opacity:1" />
        <path
           d="M 377.21048,723.81317 C 377.21334,735.49308 371.20244,744.96391 363.78662,744.96391 C 356.3708,744.96391 350.3599,735.49308 350.36276,723.81317 C 350.3599,712.13326 356.3708,702.66243 363.78662,702.66243 C 371.20244,702.66243 377.21334,712.13326 377.21048,723.81317 z"
           transform="matrix(0.3231387,0.5875929,0.9798411,-0.1212821,-488.10034,523.0159)"
           id="path2428"
           style="opacity:1;fill:#000000;fill-opacity:1;stroke:none;stroke-width:25.80236244;stroke-linecap:round;stroke-linejoin:round;stroke-miterlimit:4;stroke-dasharray:none;stroke-dashoffset:0;stroke-opacity:1" />
        <path
           d="M 377.21048,723.81317 C 377.21334,735.49308 371.20244,744.96391 363.78662,744.96391 C 356.3708,744.96391 350.3599,735.49308 350.36276,723.81317 C 350.3599,712.13326 356.3708,702.66243 363.78662,702.66243 C 371.20244,702.66243 377.21334,712.13326 377.21048,723.81317 z"
           transform="matrix(0.3333841,0.6351333,1.0109079,-0.1310947,-518.73499,535.53574)"
           id="path2430"
           style="opacity:1;fill:#000000;fill-opacity:1;stroke:none;stroke-width:25.80236244;stroke-linecap:round;stroke-linejoin:round;stroke-miterlimit:4;stroke-dasharray:none;stroke-dashoffset:0;stroke-opacity:1" />
      </g>
    </g>
  </g>
</svg>
